<!-- <svg
    xmlns="http://www.w3.org/2000/svg" width="200" height="200" viewBox="0 0 48 48"><g fill="none" stroke="#fff" stroke-linecap="round" stroke-linejoin="round" stroke-width="4"><path d="M13 35H7V41"/><path d="M41 41H35V35"/><path d="M35 13H41V7"/><path d="M7 7H13V13"/><path d="M13 7.29395C7.57778 10.8714 4 17.0178 4 23.9999C4 25.0195 4.0763 26.0213 4.2235 26.9999"/><path d="M26.9999 43.7765C26.0213 43.9237 25.0195 44 23.9999 44C17.0178 44 10.8714 40.4222 7.29395 35"/><path d="M43.7765 21C43.9237 21.9786 44 22.9804 44 24C44 30.9821 40.4222 37.1285 35 40.706"/><path d="M21 4.2235C21.9786 4.0763 22.9804 4 24 4C30.9821 4 37.1285 7.57778 40.706 13"/></g>
</svg> -->

<!-- <svg xmlns="http://www.w3.org/2000/svg" width="200" height="200" viewBox="0 0 24 24"><path fill="none" stroke="#000" stroke-width="2" d="M12 13a4 4 0 1 0 0-8a4 4 0 0 0 0 8Zm-6 9v-3a6 6 0 1 1 12 0v3M13 5c.404-1.664 2.015-3 4-3c2.172 0 3.98 1.79 4 4c-.02 2.21-1.828 4-4 4h-1h1c3.288 0 6 2.686 6 6v2M11 5c-.404-1.664-2.015-3-4-3c-2.172 0-3.98 1.79-4 4c.02 2.21 1.828 4 4 4h1h-1c-3.288 0-6 2.686-6 6v2"/></svg> -->


<!-- <svg xmlns="http://www.w3.org/2000/svg" width="200" height="200" viewBox="0 0 24 24"><path fill="#000" d="M9.2 13.73a1 1 0 0 0-1.41-.05A11.18 11.18 0 0 0 4 22a1 1 0 0 0 2 0a9.15 9.15 0 0 1 3.15-6.86a1 1 0 0 0 .05-1.41m10.17 4.64a10.9 10.9 0 0 0-1.6-3A14.3 14.3 0 0 0 14.06 12C16.3 10.57 20 7.4 20 2a1 1 0 0 0-2 0c0 5.4-4.59 8.17-6 8.89A13.4 13.4 0 0 1 9.31 9H12a1 1 0 0 0 0-2H7.55a9.4 9.4 0 0 1-1-2H15a1 1 0 0 0 0-2H6.06A8 8 0 0 1 6 2a1 1 0 0 0-2 0c0 7.57 7.3 10.79 7.61 10.92A13 13 0 0 1 14.7 15H12a1 1 0 0 0 0 2h4.43a9 9 0 0 1 1 2H9a1 1 0 0 0 0 2h8.94a8 8 0 0 1 .06 1a1 1 0 0 0 2 0a10.5 10.5 0 0 0-.22-2.19a9 9 0 0 0-.41-1.44"/></svg> -->

  <svg xmlns="http://www.w3.org/2000/svg" width="200" height="200" viewBox="0 0 24 24"><path fill="#fff" d="M2 2h20v20H2zm2 2v4h4v4H4v4h4v4h4v-4h4v4h4v-4h-4v-4h4V8h-4V4h-4v4H8V4zm8 8H8v4h4zm0-4v4h4V8z"/>
                </svg>