<svg width="100" height="100" viewBox="0 0 100 100" fill="none" xmlns="http://www.w3.org/2000/svg">
<path d="M50.0001 18.75C52.4865 18.75 54.8711 17.7623 56.6292 16.0041C58.3874 14.246 59.3751 11.8614 59.3751 9.375C59.3751 6.8886 58.3874 4.50403 56.6292 2.74587C54.8711 0.98772 52.4865 0 50.0001 0C47.5137 0 45.1291 0.98772 43.371 2.74587C41.6128 4.50403 40.6251 6.8886 40.6251 9.375C40.6251 11.8614 41.6128 14.246 43.371 16.0041C45.1291 17.7623 47.5137 18.75 50.0001 18.75ZM31.4064 17.1875C27.8712 17.1875 25.2931 19.6875 24.4532 22.4414C22.8907 27.5586 18.1251 31.2695 12.5001 31.2695C10.547 31.2695 8.71104 30.8203 7.08995 30.0391C5.60557 29.3164 3.82823 29.3945 2.40245 30.2734C0.136821 31.6602 -0.605367 34.5898 0.722759 36.8945L19.0626 68.75H29.8829L13.672 40.6055C21.5821 40.1758 28.379 35.5469 31.8556 28.9258C36.1524 34.1602 42.6759 37.5 49.9806 37.5C57.2853 37.5 63.8087 34.1602 68.1056 28.9258C71.5821 35.5664 78.379 40.1953 86.2892 40.6055L70.1173 68.75H80.9376L99.2774 36.8945C100.606 34.6094 99.8634 31.6797 97.5978 30.293C96.172 29.4141 94.3946 29.3359 92.9103 30.0586C91.2696 30.8398 89.4532 31.2891 87.5001 31.2891C81.8751 31.2891 77.1095 27.5781 75.547 22.4609C74.7071 19.6875 72.129 17.1875 68.5939 17.1875C65.7618 17.1875 63.4571 18.8477 62.2657 20.957C59.8439 25.2539 55.254 28.125 50.0001 28.125C44.7462 28.125 40.1564 25.2344 37.7345 20.957C36.5431 18.8477 34.2579 17.1875 31.4064 17.1875ZM26.0157 84.375H73.9845L77.2267 90.625H22.7931L26.0353 84.375H26.0157ZM81.4259 78.3789C80.3517 76.3086 78.2032 75 75.879 75H24.1212C21.7774 75 19.6485 76.3086 18.5743 78.3789L13.3985 88.3789C12.8126 89.5117 12.5001 90.7617 12.5001 92.0313C12.5001 96.4258 16.0548 100 20.4689 100H79.5509C83.9454 100 87.5196 96.4453 87.5196 92.0313C87.5196 90.7617 87.2071 89.5117 86.6212 88.3789L81.4454 78.3789H81.4259Z" fill="black"/>
</svg>
